<?xml version="1.0" encoding="UTF-8" standalone="no" ?>
<!DOCTYPE svg PUBLIC "-//W3C//DTD SVG 1.1//EN" "http://www.w3.org/Graphics/SVG/1.1/DTD/svg11.dtd">
<svg xmlns="http://www.w3.org/2000/svg" xmlns:xlink="http://www.w3.org/1999/xlink" version="1.1" width="1280" height="1024" viewBox="0 0 1280 1024" xml:space="preserve">
<desc>Created with Fabric.js 5.3.0</desc>
<defs>
</defs>
<g transform="matrix(1 0 0 1 640 512)" id="background-logo"  >
<rect style="stroke: none; stroke-width: 0; stroke-dasharray: none; stroke-linecap: butt; stroke-dashoffset: 0; stroke-linejoin: miter; stroke-miterlimit: 4; fill: rgb(255,255,255); fill-opacity: 0; fill-rule: nonzero; opacity: 1;"  paint-order="stroke"  x="-640" y="-512" rx="0" ry="0" width="1280" height="1024" />
</g>
<g transform="matrix(1.9211538461538462 0 0 1.9211538461538462 640 395.6864080388972)" id="logo-logo"  >
<g style=""  paint-order="stroke"   >
		<g transform="matrix(0.917930923744532 0 0 0.9179309237445321 0 0)"  >
<g style=""  paint-order="stroke"   >
		<g transform="matrix(1 0 0 1 0 0)"  >
<linearGradient id="SVGID_2_206719" gradientUnits="userSpaceOnUse" gradientTransform="matrix(1 0 0 1 -100 -100)"  x1="0" y1="0" x2="0" y2="200">
<stop offset="0%" style="stop-color:rgb(147,103,233);stop-opacity: 1"/>
<stop offset="100%" style="stop-color:rgb(94,31,219);stop-opacity: 1"/>
</linearGradient>
<polygon style="stroke: none; stroke-width: 1; stroke-dasharray: none; stroke-linecap: butt; stroke-dashoffset: 0; stroke-linejoin: miter; stroke-miterlimit: 4; fill: url(#SVGID_2_206719); fill-rule: nonzero; opacity: 1;"  paint-order="stroke"  points="100,100 0,100 0,95.12 95.12,95.12 95.12,-95.12 -95.12,-95.12 -95.12,0 -100,0 -100,-100 100,-100 100,100 " />
</g>
</g>
</g>
</g>
</g>
<g transform="matrix(1.9211538461538462 0 0 1.9211538461538462 639.920752403846 667.1128161574082)" id="text-logo"  >
<g style=""  paint-order="stroke"   >
		<g transform="matrix(1 0 0 1 0 0)" id="text-logo-path-0"  >
<path style="stroke: rgb(255,255,255); stroke-width: 0; stroke-dasharray: none; stroke-linecap: butt; stroke-dashoffset: 0; stroke-linejoin: miter; stroke-miterlimit: 4; fill: rgb(128,76,230); fill-rule: nonzero; opacity: 1;"  paint-order="stroke"  transform=" translate(-236.39, 19.25)" d="M 2.2 0 L 6.05 0 L 8.25 -10.45 L 18.09 -10.45 L 20.3 0 L 24.14 0 L 16.06 -38.5 L 10.29 -38.5 Z M 8.96 -13.75 L 13.2 -33.94 L 17.43 -13.75 Z M 50.98 -38.5 L 50.98 0 L 54.84 0 L 54.84 -18.15 L 65.84 -18.15 L 65.84 0 L 69.69 0 L 69.69 -38.5 L 65.84 -38.5 L 65.84 -21.45 L 54.84 -21.45 L 54.84 -38.5 Z M 123.92 -38.5 L 118.42 -38.5 L 111.87 -14.96 L 105.33 -38.5 L 99.83 -38.5 L 99.83 0 L 103.67 0 L 103.67 -30.58 L 109.89 -8.25 L 113.85 -8.25 L 120.06 -30.58 L 120.06 0 L 123.92 0 Z M 154.06 -38.5 L 154.06 0 L 170.56 0 L 170.56 -3.3 L 157.91 -3.3 L 157.91 -17.6 L 167.25 -17.6 L 167.25 -20.9 L 157.91 -20.9 L 157.91 -35.2 L 170 -35.2 L 170 -38.5 Z M 206.19 -38.5 L 197.94 -38.5 L 197.94 0 L 206.19 0 C 211.42 0 215.54 -1.54 215.54 -8.8 L 215.54 -29.7 C 215.54 -37.07 211.42 -38.5 206.19 -38.5 Z M 201.79 -35.2 L 206.19 -35.2 C 209.55 -35.2 211.69 -34.16 211.69 -29.15 L 211.69 -9.35 C 211.69 -4.34 209.55 -3.3 206.19 -3.3 L 201.79 -3.3 Z M 275 -38.5 L 275 0 L 278.85 0 L 278.85 -18.15 L 289.85 -18.15 L 289.85 0 L 293.7 0 L 293.7 -38.5 L 289.85 -38.5 L 289.85 -21.45 L 278.85 -21.45 L 278.85 -38.5 Z M 330.99 -38.5 L 322.19 -38.5 L 322.19 -35.2 L 324.66 -35.2 L 324.66 -3.3 L 322.19 -3.3 L 322.19 0 L 330.99 0 L 330.99 -3.3 L 328.51 -3.3 L 328.51 -35.2 L 330.99 -35.2 Z M 367.73 -38.5 L 359.48 -38.5 L 359.48 0 L 367.73 0 C 372.95 0 377.08 -1.54 377.08 -8.8 L 377.08 -29.7 C 377.08 -37.07 372.95 -38.5 367.73 -38.5 Z M 363.33 -35.2 L 367.73 -35.2 C 371.08 -35.2 373.23 -34.16 373.23 -29.15 L 373.23 -9.35 C 373.23 -4.34 371.08 -3.3 367.73 -3.3 L 363.33 -3.3 Z M 403.09 0 L 406.94 0 L 409.14 -10.45 L 418.99 -10.45 L 421.19 0 L 425.04 0 L 416.95 -38.5 L 411.18 -38.5 Z M 409.86 -13.75 L 414.09 -33.94 L 418.33 -13.75 Z M 451.88 0 L 455.73 0 L 455.73 -14.3 L 459.58 -14.3 L 466.45 0 L 470.58 0 L 463.54 -14.74 C 466.78 -15.56 468.93 -17.82 468.93 -23.1 L 468.93 -29.7 C 468.93 -37.07 464.8 -38.5 459.58 -38.5 L 451.88 -38.5 Z M 455.73 -17.6 L 455.73 -35.2 L 459.58 -35.2 C 462.93 -35.2 465.08 -34.16 465.08 -29.15 L 465.08 -23.65 C 465.08 -18.64 462.93 -17.6 459.58 -17.6 Z" stroke-linecap="round" />
</g>
</g>
</g>
<g transform="matrix(1.9211538461538462 0 0 1.9211538461538462 639.9221932692308 399.4872725040416)" id="tagline-3a78d944-c0db-44d4-8ad5-60158c925687-logo"  >
<g style=""  paint-order="stroke"   >
		<g transform="matrix(1 0 0 1 0 0)" id="tagline-3a78d944-c0db-44d4-8ad5-60158c925687-logo-path-0"  >
<linearGradient id="SVGID_206720" gradientUnits="userSpaceOnUse" gradientTransform="matrix(1 0 0 1 3.2399999999999984 -56.7)"  x1="-3.1995006179809593" y1="-14.510339999999985" x2="-3.1995006179809593" y2="77.48966000000001">
<stop offset="0%" style="stop-color:rgb(147,103,233);stop-opacity: 1"/>
<stop offset="100%" style="stop-color:rgb(94,31,219);stop-opacity: 1"/>
</linearGradient>
<path style="stroke: rgb(255,255,255); stroke-width: 0; stroke-dasharray: none; stroke-linecap: butt; stroke-dashoffset: 0; stroke-linejoin: miter; stroke-miterlimit: 4; fill: url(#SVGID_206720); fill-rule: nonzero; opacity: 1;"  paint-order="stroke"  transform=" translate(-19.4, 28.35)" d="M 3.24 0 L 8.91 0 L 12.15 -15.39 L 26.65 -15.39 L 29.89 0 L 35.56 0 L 23.65 -56.7 L 15.15 -56.7 Z M 13.2 -20.25 L 19.44 -49.98 L 25.68 -20.25 Z" stroke-linecap="round" />
</g>
</g>
</g>
</svg>